<?xml version="1.0" standalone="no"?>
<!DOCTYPE svg PUBLIC "-//W3C//DTD SVG 20010904//EN"
 "http://www.w3.org/TR/2001/REC-SVG-20010904/DTD/svg10.dtd">
<svg version="1.0" xmlns="http://www.w3.org/2000/svg"
 width="60.000000pt" height="76.000000pt" viewBox="0 0 60.000000 76.000000"
 preserveAspectRatio="xMidYMid meet">

<g transform="translate(0.000000,76.000000) scale(0.100000,-0.100000)"
fill="#000000" stroke="none">
<path d="M410 439 c0 -5 5 -7 10 -4 6 3 10 8 10 11 0 2 -4 4 -10 4 -5 0 -10
-5 -10 -11z"/>
<path d="M400 412 c0 -7 -7 -12 -15 -12 -9 0 -19 -8 -22 -17 -4 -10 -11 -22
-17 -26 -7 -5 -4 -6 7 -3 10 3 24 6 32 6 12 0 28 50 19 59 -2 2 -4 -1 -4 -7z
m-10 -32 c0 -5 -4 -10 -10 -10 -5 0 -10 5 -10 10 0 6 5 10 10 10 6 0 10 -4 10
-10z"/>
<path d="M310 339 c0 -5 5 -7 10 -4 6 3 10 8 10 11 0 2 -4 4 -10 4 -5 0 -10
-5 -10 -11z"/>
<path d="M164 272 c78 -83 194 -83 272 0 l29 31 -44 -29 c-39 -26 -54 -29
-121 -29 -67 0 -82 3 -121 29 l-44 29 29 -31z"/>
<path d="M85 211 c41 -43 120 -91 152 -91 25 0 5 14 -49 34 -25 9 -68 36 -95
58 l-48 42 40 -43z"/>
<path d="M502 210 c-24 -21 -64 -47 -90 -56 -54 -20 -74 -34 -49 -34 31 0 111
47 152 89 49 52 43 52 -13 1z"/>
</g>
</svg>
