<?xml version="1.0" standalone="no"?>
<!DOCTYPE svg PUBLIC "-//W3C//DTD SVG 20010904//EN"
 "http://www.w3.org/TR/2001/REC-SVG-20010904/DTD/svg10.dtd">
<svg version="1.0" xmlns="http://www.w3.org/2000/svg"
 width="60.000000pt" height="76.000000pt" viewBox="0 0 60.000000 76.000000"
 preserveAspectRatio="xMidYMid meet">

<g transform="translate(0.000000,76.000000) scale(0.100000,-0.100000)"
fill="#000000" stroke="none">
<path d="M213 518 c-18 -9 -23 -20 -23 -50 0 -43 0 -42 35 -26 20 9 25 18 25
50 0 41 -3 43 -37 26z"/>
<path d="M328 514 c-23 -12 -28 -22 -28 -50 0 -31 3 -35 18 -29 9 4 25 10 35
12 12 4 17 16 17 44 0 43 -3 45 -42 23z"/>
<path d="M191 308 c64 -64 154 -64 218 0 20 20 28 30 17 21 -74 -59 -178 -59
-252 0 -11 9 -3 -1 17 -21z"/>
<path d="M76 301 c10 -18 33 -44 51 -58 40 -30 148 -86 133 -68 -6 7 -35 25
-65 40 -30 14 -73 47 -96 73 -37 41 -40 43 -23 13z"/>
<path d="M497 285 c-20 -24 -61 -55 -92 -70 -30 -15 -59 -33 -65 -40 -15 -18
93 38 133 68 26 20 77 88 65 87 -2 -1 -20 -20 -41 -45z"/>
</g>
</svg>
