<?xml version="1.0" standalone="no"?>
<!DOCTYPE svg PUBLIC "-//W3C//DTD SVG 20010904//EN"
 "http://www.w3.org/TR/2001/REC-SVG-20010904/DTD/svg10.dtd">
<svg version="1.0" xmlns="http://www.w3.org/2000/svg"
 width="60.000000pt" height="76.000000pt" viewBox="0 0 60.000000 76.000000"
 preserveAspectRatio="xMidYMid meet">

<g transform="translate(0.000000,76.000000) scale(0.100000,-0.100000)"
fill="#000000" stroke="none">
<path d="M405 490 c-10 -11 -22 -17 -26 -14 -5 3 -9 0 -9 -6 0 -6 -25 -37 -55
-69 -30 -32 -55 -60 -55 -63 0 -12 43 -16 77 -6 66 18 121 100 106 158 -7 25
-15 25 -38 0z"/>
<path d="M261 424 c0 -11 3 -14 6 -6 3 7 2 16 -1 19 -3 4 -6 -2 -5 -13z"/>
<path d="M162 323 c61 -92 177 -104 256 -26 20 20 28 29 17 20 -54 -43 -142
-59 -202 -36 -15 5 -41 22 -57 37 -24 22 -27 23 -14 5z"/>
<path d="M33 244 c7 -12 253 -217 266 -222 10 -3 264 204 270 221 3 8 -146
-111 -251 -201 -15 -13 -29 -4 -135 85 -142 118 -159 131 -150 117z"/>
</g>
</svg>
