<?xml version="1.0" standalone="no"?>
<!DOCTYPE svg PUBLIC "-//W3C//DTD SVG 20010904//EN"
 "http://www.w3.org/TR/2001/REC-SVG-20010904/DTD/svg10.dtd">
<svg version="1.0" xmlns="http://www.w3.org/2000/svg"
 width="60.000000pt" height="76.000000pt" viewBox="0 0 60.000000 76.000000"
 preserveAspectRatio="xMidYMid meet">

<g transform="translate(0.000000,76.000000) scale(0.100000,-0.100000)"
fill="#000000" stroke="none">
<path d="M291 465 c-1 -54 2 -85 8 -85 7 0 11 32 11 85 0 111 -17 111 -19 0z"/>
<path d="M200 525 c0 -10 10 -15 30 -15 20 0 30 5 30 15 0 10 -10 15 -30 15
-20 0 -30 -5 -30 -15z"/>
<path d="M340 525 c0 -10 10 -15 30 -15 20 0 30 5 30 15 0 10 -10 15 -30 15
-20 0 -30 -5 -30 -15z"/>
<path d="M212 438 c3 -47 6 -53 26 -56 22 -3 23 -1 21 52 -2 52 -4 56 -26 56
-23 0 -24 -3 -21 -52z m25 -20 c-3 -8 -6 -5 -6 6 -1 11 2 17 5 13 3 -3 4 -12
1 -19z"/>
<path d="M340 434 c0 -52 1 -55 23 -52 19 3 22 10 25 56 3 50 2 52 -22 52 -25
0 -26 -3 -26 -56z"/>
<path d="M182 307 c20 -20 55 -41 77 -48 55 -16 111 1 159 48 21 20 28 29 17
20 -77 -61 -193 -61 -270 0 -11 9 -4 0 17 -20z"/>
<path d="M100 255 c13 -14 26 -25 28 -25 3 0 -5 11 -18 25 -13 14 -26 25 -28
25 -3 0 5 -11 18 -25z"/>
<path d="M484 248 l-19 -23 23 19 c21 18 27 26 19 26 -2 0 -12 -10 -23 -22z"/>
<path d="M200 190 c8 -5 24 -10 34 -10 26 0 18 6 -19 14 -22 5 -26 4 -15 -4z"/>
<path d="M370 190 c-21 -7 -21 -8 -5 -9 11 0 27 4 35 9 18 11 5 11 -30 0z"/>
</g>
</svg>
