<?xml version="1.0" standalone="no"?>
<!DOCTYPE svg PUBLIC "-//W3C//DTD SVG 20010904//EN"
 "http://www.w3.org/TR/2001/REC-SVG-20010904/DTD/svg10.dtd">
<svg version="1.0" xmlns="http://www.w3.org/2000/svg"
 width="60.000000pt" height="76.000000pt" viewBox="0 0 60.000000 76.000000"
 preserveAspectRatio="xMidYMid meet">

<g transform="translate(0.000000,76.000000) scale(0.100000,-0.100000)"
fill="#000000" stroke="none">
<path d="M206 545 c-19 -20 -20 -26 -3 -49 26 -36 84 4 61 42 -15 23 -38 26
-58 7z m35 -39 c-22 -26 -31 -7 -22 44 1 2 8 -3 18 -12 13 -14 14 -20 4 -32z"/>
<path d="M374 381 c-1 -29 2 -38 12 -34 19 7 27 42 14 58 -19 23 -25 18 -26
-24z"/>
<path d="M154 288 c32 -43 98 -78 146 -78 48 0 114 35 146 78 l28 37 -38 -33
c-48 -42 -75 -52 -136 -52 -61 0 -88 10 -136 52 l-38 33 28 -37z"/>
<path d="M65 200 c25 -48 107 -123 173 -158 l62 -33 62 33 c68 36 143 106 171
159 l18 34 -22 -30 c-41 -54 -113 -115 -167 -142 -48 -23 -57 -25 -92 -14 -52
16 -149 89 -184 139 -34 49 -43 54 -21 12z"/>
</g>
</svg>
