<?xml version="1.0" standalone="no"?>
<!DOCTYPE svg PUBLIC "-//W3C//DTD SVG 20010904//EN"
 "http://www.w3.org/TR/2001/REC-SVG-20010904/DTD/svg10.dtd">
<svg version="1.0" xmlns="http://www.w3.org/2000/svg"
 width="60.000000pt" height="76.000000pt" viewBox="0 0 60.000000 76.000000"
 preserveAspectRatio="xMidYMid meet">

<g transform="translate(0.000000,76.000000) scale(0.100000,-0.100000)"
fill="#000000" stroke="none">
<path d="M252 599 l-33 -10 18 -30 c25 -42 51 -65 62 -53 13 13 31 85 25 96
-6 10 -29 9 -72 -3z"/>
<path d="M350 582 c0 -5 14 -18 30 -30 35 -27 40 -15 7 16 -24 23 -37 28 -37
14z"/>
<path d="M388 502 c-39 -23 -36 -50 7 -68 19 -7 37 -14 40 -14 7 0 6 65 -1 84
-8 20 -12 20 -46 -2z"/>
<path d="M231 345 c15 -14 89 -33 76 -19 -5 5 -27 14 -49 21 -34 10 -39 10
-27 -2z"/>
<path d="M182 276 c73 -69 164 -69 236 0 l37 35 -42 -26 c-72 -46 -158 -46
-229 1 l-39 25 37 -35z"/>
<path d="M170 156 c0 -2 8 -10 18 -17 15 -13 16 -12 3 4 -13 16 -21 21 -21 13z"/>
<path d="M409 143 c-13 -16 -12 -17 4 -4 16 13 21 21 13 21 -2 0 -10 -8 -17
-17z"/>
<path d="M258 60 l42 -45 43 45 42 45 -42 -40 -43 -39 -42 39 -43 40 43 -45z"/>
</g>
</svg>
