<?xml version="1.0" standalone="no"?>
<!DOCTYPE svg PUBLIC "-//W3C//DTD SVG 20010904//EN"
 "http://www.w3.org/TR/2001/REC-SVG-20010904/DTD/svg10.dtd">
<svg version="1.0" xmlns="http://www.w3.org/2000/svg"
 width="60.000000pt" height="76.000000pt" viewBox="0 0 60.000000 76.000000"
 preserveAspectRatio="xMidYMid meet">

<g transform="translate(0.000000,76.000000) scale(0.100000,-0.100000)"
fill="#000000" stroke="none">
<path d="M263 608 c-29 -14 -43 -55 -31 -91 8 -23 5 -32 -16 -58 -15 -18 -26
-43 -26 -60 0 -25 6 -33 37 -46 43 -17 144 -13 168 7 23 19 18 65 -11 99 -23
28 -25 35 -15 59 28 68 -37 123 -106 90z m10 -30 c-13 -12 -25 -19 -29 -15
-10 10 16 37 34 37 13 0 12 -4 -5 -22z m-13 -116 c0 -5 -9 -17 -20 -27 -16
-14 -20 -15 -20 -4 0 16 19 39 32 39 4 0 8 -4 8 -8z"/>
<path d="M50 346 c0 -37 85 -125 147 -152 50 -22 156 -22 206 0 46 20 113 80
133 117 24 47 16 44 -18 -7 -22 -31 -52 -58 -88 -78 -48 -27 -65 -31 -130 -31
-65 0 -82 4 -130 31 -36 20 -66 47 -87 78 -18 27 -33 45 -33 42z"/>
<path d="M187 290 c68 -62 158 -62 226 0 l32 29 -49 -24 c-65 -33 -127 -33
-192 0 l-49 24 32 -29z"/>
<path d="M160 166 c0 -2 8 -10 18 -17 15 -13 16 -12 3 4 -13 16 -21 21 -21 13z"/>
<path d="M419 153 c-13 -16 -12 -17 4 -4 16 13 21 21 13 21 -2 0 -10 -8 -17
-17z"/>
<path d="M258 60 l42 -45 43 45 42 45 -42 -40 -43 -39 -42 39 -43 40 43 -45z"/>
</g>
</svg>
