<svg xmlns="http://www.w3.org/2000/svg" width="48" height="48" viewBox="0 0 2400 2400">
    <path fill="none" d="M1200 0c-663.3 0-1200 536.7-1200 1200s536.7 1200 1200 1200 1200-536.7 1200-1200S1863.3 0 1200 0z"></path>
    <path transform="scale(1.8) translate(-450, -450)" fill="#ffffff" d="M1805.2 705.9c-10.3-12.5-27.1-16.2-41.7-9.3L579 1083.8c-15.6 7.3-25.7 22.7-26.9 40.2-1.2 17.4 7.2 33.8 22.5 42.3l286.5 157.4 80.4 312c4.7 18.3 20.7 31.6 39.5 34 2.1.3 4.2.5 6.3.5 16.7 0 32.5-8.6 41.8-22.7l154.6-232.6 266.9 217.5c7.5 6.1 16.8 9.4 26.4 9.4 4.7 0 9.4-.8 13.9-2.4 13.6-4.7 24.1-15.8 28.3-29.7l238.5-785.2c4.4-14.6.7-30.6-9.6-43.1zm-152.3 152.2l-193.6 636.9-184.4-150.3c-.1-.1-.3-.2-.4-.3-15.5-12.6-37.8-9.3-49.3 7.3l-111.4 167.6-59.4-229.7 597.9-432z"></path>
  </svg>