<svg width="23" height="24" viewBox="0 0 23 19" fill="none" xmlns="http://www.w3.org/2000/svg">
  <path d="M22.54 5.17C22.421 4.746 22.196 4.352 21.889 4.019C21.582 3.687 21.204 3.428 20.781 3.263C19.575 2.814 11.5 2.814 11.5 2.814C11.5 2.814 3.425 2.814 2.219 3.263C1.796 3.428 1.418 3.687 1.111 4.019C0.804 4.352 0.579 4.746 0.46 5.17C0.073 6.454 0.073 9.456 0.073 9.456C0.073 9.456 0.073 12.457 0.46 13.742C0.579 14.165 0.804 14.559 1.111 14.891C1.418 15.223 1.796 15.482 2.219 15.647C3.425 16.096 11.5 16.096 11.5 16.096C11.5 16.096 19.575 16.096 20.781 15.647C21.204 15.482 21.582 15.223 21.889 14.891C22.196 14.559 22.421 14.165 22.54 13.742C22.927 12.457 22.927 9.456 22.927 9.456C22.927 9.456 22.927 6.454 22.54 5.17Z" fill="white"/>
  <path d="M9.545 12.814V6.098L14.909 9.456L9.545 12.814Z" fill="red"/>
</svg>
